<svg version="1.1"
      xmlns="http://www.w3.org/2000/svg"
      xmlns:xlink="http://www.w3.org/1999/xlink"  id="snapshot-30576" width="250" height="250" viewBox="0 0 250 250"><desc>This image was made on Patterninja.com</desc><defs>
<!-- image 32205 -->
<g id="transformed-32205" data-image="32205" transform="translate(-53, -50) rotate(340, 53, 50)"><g><svg version="1.1" width="106px" height="100px" viewBox="0 0 106 100"><g id="original-32205"><svg xmlns="http://www.w3.org/2000/svg" viewBox="0 0 70 66" xmlns:xlink="http://www.w3.org/1999/xlink" version="1.1" preserveAspectRatio="xMidYMid meet">
  <path fill-rule="evenodd" d="M55 60a6 6 0 0 1-6 6H6a6 6 0 0 1-6-6V6a6 6 0 0 1 6-6h9c13 0 9 8 24 8h16v52z" fill="rgba(156, 77, 138, 1)" stroke="none"/>
  <path fill-rule="evenodd" d="M2 12h58v52H2z" fill="rgba(217, 217, 217, 1)" stroke="none"/>
  <path fill-rule="evenodd" d="M6 18h59v47H6z" fill="rgba(232, 232, 232, 1)" stroke="none"/>
  <path fill-rule="evenodd" d="M64 66H7a5.985 5.985 0 0 1-5.609-3.924C1.969 63.213 4.637 64 6 64c2 0 4-2 4-6V24h60v36a6 6 0 0 1-6 6z" fill="rgba(191, 103, 171, 1)" stroke="none"/>
</svg>
</g></svg></g></g>
<!-- /image 32205 -->
</defs><rect x="0" y="0" width="250" height="250" fill="rgba(139, 42, 69, 1)"></rect><use xlink:href="#transformed-32205" transform="translate(-250, -250)"></use><use xlink:href="#transformed-32205" transform="translate(0, -250)"></use><use xlink:href="#transformed-32205" transform="translate(250, -250)"></use><use xlink:href="#transformed-32205" transform="translate(-250, 0)"></use><use xlink:href="#transformed-32205" transform="translate(0, 0)"></use><use xlink:href="#transformed-32205" transform="translate(250, 0)"></use><use xlink:href="#transformed-32205" transform="translate(-250, 250)"></use><use xlink:href="#transformed-32205" transform="translate(0, 250)"></use><use xlink:href="#transformed-32205" transform="translate(250, 250)"></use></svg>